# xmcd
#
# Track frame offsets:
#	150
#	11159
#	22338
#	32192
#	41776
#	54349
#	64656
#	78765
#	90642
#	108309
#	114686
#	127925
#	138749
#
# Disc length: 2144 seconds
#
# Revision: 0
# Processed by: cddbd v1.5.2PL0 Copyright (c) Steve Scherf et al.
# Submitted via: audiograbber 1.83.01
#
DISCID=b0085e0d
DTITLE=Eric Clapton and Friends - Early Daze
DYEAR=2007
DGENRE=Blues
TTITLE0=Eric Clapton - Snake Drive
TTITLE1=The Yardbirds - For Your Love
TTITLE2=John Mayall's Bluesbreakers - I'm Your Witch Doctor
TTITLE3=Eric Clapton and Jimmy Page - Tribute to Elmore
TTITLE4=Eric Clapton - Freight Loader
TTITLE5=Eric Clapton - West Coast Idea
TTITLE6=Eric Clapton and Jimmy Page - Draggin' My Tail
TTITLE7=The Yardbirds - Pounds and Stomps
TTITLE8=Eric Clapton (with John Mayall's Bluesbreakers) - Telephone Blues
TTITLE9=Eric Clapton and Jimmy Page - Choker
TTITLE10=The Yardbirds - You Can't Judge a Book by Looking at the Cover
TTITLE11=Eric Clapton and Jimmy Page - Miles Road
TTITLE12=The Yardbirds - Here 't Is
EXTD=
EXTT0=
EXTT1=
EXTT2=
EXTT3=
EXTT4=
EXTT5=
EXTT6=
EXTT7=
EXTT8=
EXTT9=
EXTT10=
EXTT11=
EXTT12=
PLAYORDER=
